<svg xmlns="http://www.w3.org/2000/svg" xmlns:xlink="http://www.w3.org/1999/xlink" width="190" height="183" viewBox="0 0 190 183">
  <defs>
    <filter id="Ellipse_1" x="23" y="46" width="107" height="107" filterUnits="userSpaceOnUse">
      <feOffset dy="3" input="SourceAlpha"/>
      <feGaussianBlur stdDeviation="3" result="blur"/>
      <feFlood flood-color="#6121a6" flood-opacity="0.271"/>
      <feComposite operator="in" in2="blur"/>
      <feComposite in="SourceGraphic"/>
    </filter>
    <filter id="Subtraction_1" x="85.973" y="22" width="104.028" height="102.575" filterUnits="userSpaceOnUse">
      <feOffset dy="3" input="SourceAlpha"/>
      <feGaussianBlur stdDeviation="3" result="blur-2"/>
      <feFlood flood-color="#2125a6" flood-opacity="0.271"/>
      <feComposite operator="in" in2="blur-2"/>
      <feComposite in="SourceGraphic"/>
    </filter>
  </defs>
  <g id="Logo" transform="translate(-1092 -526)">
    <g id="Logo-Drum">
      <g transform="matrix(1, 0, 0, 1, 1092, 526)" filter="url(#Ellipse_1)">
        <circle id="Ellipse_1-2" data-name="Ellipse 1" cx="44.5" cy="44.5" r="44.5" transform="translate(32 52)" fill="#b57af5"/>
      </g>
      <path id="Subtraction_2" data-name="Subtraction 2" d="M67.5,135A67.518,67.518,0,0,1,41.226,5.3,67.517,67.517,0,0,1,93.774,129.7,67.076,67.076,0,0,1,67.5,135Zm0-122A54.5,54.5,0,1,0,122,67.5,54.562,54.562,0,0,0,67.5,13Z" transform="translate(1101 555)" fill="#b57af5"/>
      <g transform="matrix(1, 0, 0, 1, 1092, 526)" filter="url(#Subtraction_1)">
        <path id="Subtraction_1-2" data-name="Subtraction 1" d="M86.132,84.575h0l-.1-.049A44.555,44.555,0,0,0,63.973,28.476,44.5,44.5,0,0,1,150,44.5a45.03,45.03,0,0,1-.5,6.683c-1.65-.121-3.333-.182-5-.182A67.783,67.783,0,0,0,86.132,84.575Z" transform="translate(31 28)" fill="#7b7ff7"/>
      </g>
    </g>
    <rect id="Rectangle_1" data-name="Rectangle 1" width="183" height="183" rx="16" transform="translate(1092 526)" fill="none"/>
  </g>
</svg>
